<svg width="25" height="24" viewBox="0 0 25 24" fill="none" xmlns="http://www.w3.org/2000/svg">
<path d="M9.5 10C10.6046 10 11.5 9.10457 11.5 8C11.5 6.89543 10.6046 6 9.5 6C8.39543 6 7.5 6.89543 7.5 8C7.5 9.10457 8.39543 10 9.5 10Z" stroke="#119D88" stroke-width="1.5" stroke-linecap="round" stroke-linejoin="round"/>
<path d="M13.5 2H9.5C4.5 2 2.5 4 2.5 9V15C2.5 20 4.5 22 9.5 22H15.5C20.5 22 22.5 20 22.5 15V10" stroke="#119D88" stroke-width="1.5" stroke-linecap="round" stroke-linejoin="round"/>
<path d="M16.25 5H21.75" stroke="#119D88" stroke-width="1.5" stroke-linecap="round"/>
<path d="M19 7.75V2.25" stroke="#119D88" stroke-width="1.5" stroke-linecap="round"/>
<path d="M3.16998 18.95L8.09998 15.64C8.88998 15.11 10.03 15.17 10.74 15.78L11.07 16.07C11.85 16.74 13.11 16.74 13.89 16.07L18.05 12.5C18.83 11.83 20.09 11.83 20.87 12.5L22.5 13.9" stroke="#119D88" stroke-width="1.5" stroke-linecap="round" stroke-linejoin="round"/>
</svg>
