<svg width="62" height="62" viewBox="0 0 62 62" fill="none" xmlns="http://www.w3.org/2000/svg">
<path opacity="0.4" d="M31 56.8334C45.2674 56.8334 56.8333 45.2674 56.8333 31C56.8333 16.7327 45.2674 5.16669 31 5.16669C16.7326 5.16669 5.16667 16.7327 5.16667 31C5.16667 45.2674 16.7326 56.8334 31 56.8334Z" fill="#119D88"/>
<path d="M41.3333 29.0625H32.9375V20.6667C32.9375 19.6075 32.0592 18.7292 31 18.7292C29.9408 18.7292 29.0625 19.6075 29.0625 20.6667V29.0625H20.6667C19.6075 29.0625 18.7292 29.9409 18.7292 31C18.7292 32.0592 19.6075 32.9375 20.6667 32.9375H29.0625V41.3334C29.0625 42.3925 29.9408 43.2709 31 43.2709C32.0592 43.2709 32.9375 42.3925 32.9375 41.3334V32.9375H41.3333C42.3925 32.9375 43.2708 32.0592 43.2708 31C43.2708 29.9409 42.3925 29.0625 41.3333 29.0625Z" fill="#119D88"/>
</svg>
