<svg width="7" height="7" viewBox="0 0 7 7" fill="none" xmlns="http://www.w3.org/2000/svg">
<path d="M7 3.5C6.99329 3.25937 6.91991 3.02506 6.78768 2.82354C6.65581 2.62239 6.47031 2.46147 6.25202 2.35941C6.33509 2.1333 6.3526 1.88857 6.30417 1.65278C6.25537 1.41661 6.14139 1.19907 5.97563 1.02437C5.80055 0.85861 5.58339 0.744998 5.34722 0.695828C5.11143 0.647403 4.8667 0.664911 4.64059 0.747978C4.5389 0.529321 4.37835 0.343444 4.17683 0.211579C3.97531 0.0797148 3.74101 0.00595998 3.5 0C3.25937 0.00633248 3.02581 0.0793423 2.82466 0.211579C2.62351 0.343816 2.46371 0.529693 2.36276 0.747978C2.13628 0.664911 1.8908 0.646658 1.65427 0.695828C1.41773 0.744253 1.19982 0.858238 1.02474 1.02437C0.858983 1.19945 0.745743 1.41736 0.69769 1.65315C0.649266 1.88894 0.667891 2.13367 0.75133 2.35941C0.532674 2.46147 0.346424 2.62202 0.213814 2.82317C0.0812048 3.02432 0.00707748 3.25899 0 3.5C0.00744998 3.74101 0.0812048 3.97531 0.213814 4.17683C0.346424 4.37798 0.532674 4.5389 0.75133 4.64059C0.667891 4.86633 0.649266 5.11106 0.69769 5.34685C0.746115 5.58301 0.858983 5.80055 1.02437 5.97563C1.19945 6.14064 1.41699 6.25388 1.65278 6.30268C1.88857 6.35185 2.1333 6.33397 2.35941 6.25202C2.46147 6.47031 2.62202 6.65581 2.82354 6.78805C3.02469 6.91991 3.25937 6.99329 3.5 7C3.74101 6.99404 3.97531 6.92066 4.17683 6.78879C4.37835 6.65693 4.5389 6.47068 4.64059 6.25239C4.86558 6.34142 5.11218 6.36265 5.34946 6.31348C5.58637 6.26431 5.80391 6.14698 5.97526 5.97563C6.14661 5.80428 6.26431 5.58674 6.31348 5.34946C6.36265 5.11218 6.34142 4.86558 6.25202 4.64059C6.47031 4.53853 6.65581 4.37798 6.78805 4.17646C6.91991 3.97531 6.99329 3.74063 7 3.5ZM3.0016 4.93412L1.7243 3.65719L2.20594 3.1722L2.97776 3.94402L4.61675 2.15826L5.11851 2.62239L3.0016 4.93412Z" fill="#1D9BF0"/>
</svg>
